<svg width="24" height="24" viewBox="0 0 24 24" fill="none" xmlns="http://www.w3.org/2000/svg">
<path d="M17 17H18C19.0609 17 20.0783 16.5786 20.8284 15.8284C21.5786 15.0783 22 14.0609 22 13C22 11.9391 21.5786 10.9217 20.8284 10.1716C20.0783 9.42143 19.0609 9 18 9H17M16 18H4M3.284 11.266C3.151 9.266 3.084 8.267 3.677 7.634C4.27 7 5.272 7 7.276 7H12.725C14.728 7 15.73 7 16.323 7.634C16.916 8.267 16.849 9.267 16.716 11.266L16.373 16.399C16.196 19.054 16.108 20.381 15.243 21.191C14.378 22.001 13.047 22 10.387 22H9.613C6.953 22 5.623 22 4.757 21.19C3.892 20.381 3.804 19.054 3.627 16.4L3.284 11.266Z" stroke="black" stroke-width="1.5"/>
<path d="M6.05 5.06099L6.461 4.48599C6.51505 4.41037 6.55366 4.32485 6.57462 4.23429C6.59558 4.14374 6.59849 4.04995 6.58316 3.95827C6.56783 3.8666 6.53458 3.77885 6.48531 3.70004C6.43604 3.62123 6.37171 3.55291 6.296 3.49899C6.14339 3.3901 6.04028 3.22506 6.00933 3.04015C5.97839 2.85525 6.02215 2.66563 6.131 2.51299L6.541 1.93799M14.051 5.06099L14.461 4.48599C14.5151 4.41037 14.5537 4.32485 14.5746 4.23429C14.5956 4.14374 14.5985 4.04995 14.5832 3.95827C14.5678 3.8666 14.5346 3.77885 14.4853 3.70004C14.436 3.62123 14.3717 3.55291 14.296 3.49899C14.1434 3.3901 14.0403 3.22506 14.0093 3.04015C13.9784 2.85525 14.0222 2.66563 14.131 2.51299L14.541 1.93799M10.051 5.06099L10.461 4.48599C10.5151 4.41037 10.5537 4.32485 10.5746 4.23429C10.5956 4.14374 10.5985 4.04995 10.5832 3.95827C10.5678 3.8666 10.5346 3.77885 10.4853 3.70004C10.436 3.62123 10.3717 3.55291 10.296 3.49899C10.1434 3.3901 10.0403 3.22506 10.0093 3.04015C9.97839 2.85525 10.0222 2.66563 10.131 2.51299L10.541 1.93799" stroke="black" stroke-width="1.5" stroke-linecap="round"/>
</svg>
