<svg width="24" height="24" viewBox="0 0 24 24" fill="none" xmlns="http://www.w3.org/2000/svg">
<path d="M6 10H10" stroke="black" stroke-width="1.5" stroke-linecap="round" stroke-linejoin="round"/>
<path d="M21.998 12.5C21.998 12.423 22 11.967 21.998 11.935C21.962 11.434 21.533 11.035 20.993 11.002C20.958 11 20.917 11 20.833 11H18.231C16.446 11 15 12.343 15 14C15 15.657 16.447 17 18.23 17H20.833C20.917 17 20.958 17 20.993 16.998C21.533 16.965 21.963 16.566 21.998 16.065C22 16.033 22 15.577 22 15.5" stroke="black" stroke-width="1.5" stroke-linecap="round"/>
<path d="M18 15C18.5523 15 19 14.5523 19 14C19 13.4477 18.5523 13 18 13C17.4477 13 17 13.4477 17 14C17 14.5523 17.4477 15 18 15Z" fill="black"/>
<path d="M10 21.9999H13C16.771 21.9999 18.657 21.9999 19.828 20.8279C20.637 20.0199 20.888 18.8719 20.965 16.9999M20.965 10.9999C20.887 9.12795 20.637 7.97995 19.828 7.17195C18.657 5.99995 16.771 5.99995 13 5.99995H10C6.229 5.99995 4.343 5.99995 3.172 7.17195C2.001 8.34395 2 10.2289 2 13.9999C2 17.7709 2 19.6569 3.172 20.8279C3.825 21.4819 4.7 21.7709 6 21.8979M6 5.99995L9.735 3.52295C10.2604 3.18165 10.8735 3 11.5 3C12.1265 3 12.7396 3.18165 13.265 3.52295L17 5.99995" stroke="black" stroke-width="1.5" stroke-linecap="round"/>
</svg>
