<svg width="24" height="24" viewBox="0 0 24 24" fill="none" xmlns="http://www.w3.org/2000/svg">
<path d="M10 21.995C6.587 21.965 4.705 21.776 3.464 20.535C2 19.072 2 16.714 2 12C2 7.286 2 4.929 3.464 3.464C4.93 2 7.286 2 12 2C16.714 2 19.071 2 20.535 3.464C21.509 4.438 21.835 5.807 21.945 8" stroke="black" stroke-width="1.5" stroke-linecap="round"/>
<path d="M2.5 7.25C2.30109 7.25 2.11032 7.32902 1.96967 7.46967C1.82902 7.61032 1.75 7.80109 1.75 8C1.75 8.19891 1.82902 8.38968 1.96967 8.53033C2.11032 8.67098 2.30109 8.75 2.5 8.75V7.25ZM22 7.25H2.5V8.75H22V7.25Z" fill="black"/>
<path d="M10.5 2.5L7 8M17 2.5L13.5 8" stroke="black" stroke-width="1.5" stroke-linecap="round"/>
<path d="M18.562 13.9349L18.979 13.5179C19.1427 13.3505 19.3379 13.2173 19.5535 13.1259C19.769 13.0344 20.0005 12.9867 20.2346 12.9854C20.4687 12.9841 20.7008 13.0292 20.9173 13.1182C21.1339 13.2072 21.3306 13.3382 21.4961 13.5038C21.6617 13.6693 21.7927 13.8661 21.8817 14.0826C21.9707 14.2991 22.0158 14.5312 22.0145 14.7653C22.0132 14.9994 21.9655 15.2309 21.8741 15.4465C21.7826 15.662 21.6494 15.8572 21.482 16.0209L21.065 16.4379M18.562 13.9349C18.562 13.9349 18.614 14.8219 19.396 15.6039C20.178 16.3859 21.065 16.4379 21.065 16.4379M18.562 13.9349L14.727 17.7699C14.467 18.0299 14.337 18.1599 14.227 18.3029C14.0952 18.472 13.9819 18.6547 13.889 18.8479C13.811 19.0119 13.753 19.1859 13.637 19.5339L13.265 20.6499L13.145 21.0099L13.99 21.8549M13.144 21.0109L13.024 21.3719C12.996 21.456 12.992 21.5462 13.0124 21.6325C13.0328 21.7187 13.0768 21.7975 13.1396 21.8602C13.2023 21.9228 13.2812 21.9667 13.3675 21.9869C13.4537 22.0072 13.544 22.003 13.628 21.9749L13.99 21.8549L14.35 21.7349L15.466 21.3629C15.814 21.2469 15.988 21.1889 16.152 21.1109C16.3452 21.018 16.5279 20.9047 16.697 20.7729C16.84 20.6629 16.97 20.5329 17.23 20.2729L21.065 16.4379" stroke="black" stroke-width="1.5"/>
</svg>
