<svg width="24" height="24" viewBox="0 0 24 24" fill="none" xmlns="http://www.w3.org/2000/svg">
<path d="M15.5 14.25C15.3011 14.25 15.1103 14.329 14.9697 14.4697C14.829 14.6103 14.75 14.8011 14.75 15C14.75 15.1989 14.829 15.3897 14.9697 15.5303C15.1103 15.671 15.3011 15.75 15.5 15.75V14.25ZM8.25 8.5C8.25 8.69891 8.32902 8.88968 8.46967 9.03033C8.61032 9.17098 8.80109 9.25 9 9.25C9.19891 9.25 9.38968 9.17098 9.53033 9.03033C9.67098 8.88968 9.75 8.69891 9.75 8.5H8.25ZM1.743 15.225C1.76993 15.322 1.8161 15.4125 1.87875 15.4913C1.94141 15.57 2.01928 15.6354 2.10771 15.6834C2.19615 15.7314 2.29335 15.7612 2.39352 15.7708C2.49369 15.7805 2.59479 15.7699 2.69078 15.7397C2.78678 15.7095 2.87571 15.6603 2.95229 15.595C3.02887 15.5297 3.09152 15.4497 3.13651 15.3596C3.18151 15.2696 3.20793 15.1715 3.2142 15.071C3.22046 14.9706 3.20645 14.8699 3.173 14.775L1.743 15.225ZM16.625 20.013C16.5361 20.0603 16.4577 20.125 16.3944 20.2033C16.3311 20.2816 16.2842 20.3718 16.2565 20.4686C16.2288 20.5654 16.2208 20.6668 16.2332 20.7667C16.2455 20.8666 16.2778 20.963 16.3281 21.0502C16.3785 21.1374 16.4459 21.2135 16.5263 21.2741C16.6067 21.3347 16.6985 21.3784 16.7962 21.4027C16.8939 21.4271 16.9955 21.4315 17.0949 21.4157C17.1944 21.4 17.2896 21.3644 17.375 21.311L16.625 20.013ZM2.75 12C2.75 9.54675 3.72455 7.19397 5.45926 5.45926C7.19397 3.72455 9.54675 2.75 12 2.75V1.25C6.063 1.25 1.25 6.063 1.25 12H2.75ZM20.425 11.469C19.9133 12.3176 19.191 13.0197 18.3281 13.5069C17.4652 13.9942 16.491 14.2501 15.5 14.25V15.75C16.7494 15.7504 17.9777 15.4279 19.0657 14.8138C20.1537 14.1997 21.0646 13.3148 21.71 12.245L20.425 11.469ZM9.75 8.5C9.74986 7.50903 10.0058 6.53483 10.4931 5.67193C10.9803 4.80902 11.6824 4.08669 12.531 3.575L11.755 2.291C10.6854 2.93628 9.80058 3.84701 9.18649 4.93486C8.57239 6.02271 8.2498 7.25078 8.25 8.5H9.75ZM3.173 14.775C2.89241 13.8767 2.74979 12.9411 2.75 12H1.25C1.25 13.122 1.422 14.206 1.742 15.225L3.173 14.775ZM21.25 12C21.2504 13.6241 20.8232 15.2197 20.0113 16.6263C19.1994 18.0329 18.0315 19.201 16.625 20.013L17.375 21.311C19.0094 20.3674 20.3666 19.0101 21.3101 17.3757C22.2536 15.7413 22.7502 13.8872 22.75 12H21.25ZM12 2.75C11.9497 2.74903 11.9002 2.73811 11.8542 2.71785C11.8082 2.6976 11.7666 2.66842 11.732 2.632C11.6898 2.58965 11.6613 2.53568 11.65 2.477C11.646 2.446 11.648 2.356 11.755 2.291L12.531 3.575C13.034 3.271 13.196 2.714 13.137 2.276C13.075 1.821 12.717 1.25 12 1.25V2.75ZM21.71 12.245C21.644 12.352 21.554 12.354 21.523 12.35C21.4643 12.3387 21.4103 12.3102 21.368 12.268C21.3316 12.2334 21.3024 12.1918 21.2821 12.1458C21.2619 12.0998 21.251 12.0503 21.25 12H22.75C22.75 11.283 22.179 10.925 21.724 10.863C21.286 10.804 20.729 10.966 20.425 11.469L21.71 12.245Z" fill="black"/>
<path d="M10.048 15.142C10.435 15.012 10.852 14.942 11.286 14.942C11.711 14.942 12.12 15.009 12.501 15.134M5.326 16.756C5.14788 16.7231 4.96714 16.7063 4.786 16.706C3.247 16.706 2 17.89 2 19.353C2 20.816 3.247 22 4.786 22H11.286C13.337 22 15 20.42 15 18.47C15 16.926 13.955 15.613 12.5 15.134C12.294 13.371 10.72 12 8.81 12C6.757 12 5.095 13.58 5.096 15.529C5.09628 15.9487 5.17426 16.3647 5.326 16.756ZM5.326 16.756C5.692 16.824 6.033 16.961 6.333 17.152" stroke="black" stroke-width="1.5" stroke-linecap="round"/>
</svg>
