<svg width="24" height="24" viewBox="0 0 24 24" fill="none" xmlns="http://www.w3.org/2000/svg">
<path d="M15.287 3.15196L14.36 4.07896L5.839 12.599C5.262 13.177 4.973 13.466 4.725 13.784C4.4324 14.1594 4.18127 14.5655 3.976 14.995C3.803 15.359 3.674 15.747 3.416 16.521L2.322 19.802L2.054 20.604C1.99132 20.7909 1.98202 20.9916 2.02715 21.1836C2.07228 21.3755 2.17005 21.5511 2.30948 21.6905C2.4489 21.8299 2.62445 21.9277 2.81639 21.9728C3.00833 22.018 3.20906 22.0087 3.396 21.946L4.198 21.678L7.479 20.584C8.254 20.326 8.641 20.197 9.005 20.024C9.43634 19.8186 9.84 19.569 10.216 19.275C10.534 19.027 10.823 18.738 11.4 18.161L19.921 9.63997L20.848 8.71297C21.5854 7.97553 21.9997 6.97535 21.9997 5.93246C21.9997 4.88958 21.5854 3.8894 20.848 3.15196C20.1106 2.41453 19.1104 2.00024 18.0675 2.00024C17.0246 2.00024 16.0244 2.41453 15.287 3.15196Z" stroke="black" stroke-width="1.5"/>
<path opacity="0.5" d="M14.36 4.07788C14.36 4.07788 14.476 6.04788 16.214 7.78588C17.952 9.52388 19.921 9.63888 19.921 9.63888M4.19801 21.6779L2.32201 19.8019" stroke="black" stroke-width="1.5"/>
</svg>
