<svg width="24" height="24" viewBox="0 0 24 24" fill="none" xmlns="http://www.w3.org/2000/svg">
<path d="M14 6C15.1046 6 16 5.10457 16 4C16 2.89543 15.1046 2 14 2C12.8954 2 12 2.89543 12 4C12 5.10457 12.8954 6 14 6Z" stroke="black" stroke-width="1.5"/>
<path d="M6 21C7.65685 21 9 19.6569 9 18C9 16.3431 7.65685 15 6 15C4.34315 15 3 16.3431 3 18C3 19.6569 4.34315 21 6 21Z" stroke="black" stroke-width="1.5"/>
<path d="M18 21C19.6569 21 21 19.6569 21 18C21 16.3431 19.6569 15 18 15C16.3431 15 15 16.3431 15 18C15 19.6569 16.3431 21 18 21Z" stroke="black" stroke-width="1.5"/>
<path d="M18.5 9.99991H14.582C14.205 9.99991 13.84 9.87191 13.545 9.63691L11.386 7.91991C11.0925 7.68458 10.752 7.51475 10.3875 7.42183C10.0229 7.3289 9.64269 7.31503 9.27234 7.38113C8.90198 7.44724 8.55004 7.5918 8.24015 7.8051C7.93025 8.01841 7.66957 8.29554 7.47559 8.61788C7.2816 8.94023 7.15881 9.30033 7.11545 9.67404C7.07209 10.0477 7.10916 10.4264 7.22418 10.7846C7.3392 11.1428 7.5295 11.4722 7.78232 11.7508C8.03514 12.0294 8.34462 12.2508 8.69 12.3999L11.78 13.7489C12.2376 13.9484 12.5978 14.3208 12.7818 14.7849C12.9657 15.249 12.9586 15.767 12.762 16.2259L12 17.9999" stroke="black" stroke-width="1.5" stroke-linecap="round"/>
</svg>
